<svg xmlns="http://www.w3.org/2000/svg" xmlns:xlink="http://www.w3.org/1999/xlink" width="30" height="30" version="1.1" viewBox="0 0 30 30"><title>B4505765-DB34-490E-B287-74ACED520854</title><desc>Created with sketchtool.</desc><g id="Symbols" fill="none" fill-rule="evenodd" stroke="none" stroke-width="1" opacity=".5"><g id="header" fill="#FFF" transform="translate(-1402.000000, -436.000000)"><g id="search"><g transform="translate(508.000000, 412.000000)"><path id="search_ic" d="M915.428571,42.8571429 L914.057143,42.8571429 L913.542857,42.3428571 C915.257143,40.4571429 916.285714,37.8857143 916.285714,35.1428571 C916.285714,28.9714286 911.314286,24 905.142857,24 C898.971429,24 894,28.9714286 894,35.1428571 C894,41.3142857 898.971429,46.2857143 905.142857,46.2857143 C907.885714,46.2857143 910.457143,45.2571429 912.342857,43.5428571 L912.857143,44.0571429 L912.857143,45.4285714 L921.428571,54 L924,51.4285714 L915.428571,42.8571429 L915.428571,42.8571429 Z M905.142857,42.8571429 C900.857143,42.8571429 897.428571,39.4285714 897.428571,35.1428571 C897.428571,30.8571429 900.857143,27.4285714 905.142857,27.4285714 C909.428571,27.4285714 912.857143,30.8571429 912.857143,35.1428571 C912.857143,39.4285714 909.428571,42.8571429 905.142857,42.8571429 L905.142857,42.8571429 Z"/></g></g></g></g></svg>